<svg id="Layer_1" data-name="Layer 1" xmlns="http://www.w3.org/2000/svg" xmlns:xlink="http://www.w3.org/1999/xlink" viewBox="0 0 299.1 297"><defs><style>.cls-1{fill:none;}.cls-2{fill:#e41b23;}.cls-3{clip-path:url(#clip-path);}</style><clipPath id="clip-path" transform="translate(-6.2 -4)"><polygon class="cls-1" points="181 263 181 235 -5 235 -5 258 -14 258 -14 271 -9.51 271 -9.51 295.91 176.5 295.91 176.5 267.91 1 267.91 1 263 181 263"/></clipPath></defs><path class="cls-2" d="M236.9,4H71.05C57,4,51,12,49,22.35L24,210.9C23,225,31,232,45.68,232.26H204.2l10-73.42H102.09l13.34-83.75H226.89Z" transform="translate(-6.2 -4)"/><polygon points="113.57 77.43 103.22 149.5 215.35 149.5 194.32 297 269.07 297 299.1 77.43 113.57 77.43"/><path d="M198.29,262.5v4.29a45.26,45.26,0,0,0-5,6.37,64.22,64.22,0,0,0-5.54,9.79,66.34,66.34,0,0,0-3.61,9.33q-.8,2.7-2.05,8.72h-5.44a67,67,0,0,1,8.2-22.31,70.13,70.13,0,0,1,7.88-11.24H175.05V262.5Z" transform="translate(-6.2 -4)"/><g class="cls-3"><path d="M45.23,251.14h-5.5a9.07,9.07,0,0,0-2.38-6.4c-1.52-1.57-4-2.35-7.33-2.35a15.48,15.48,0,0,0-10.83,4.32Q14.49,251,12.6,260q-1.56,7.31.89,11.86t9.22,4.55a13.55,13.55,0,0,0,10.51-4.79,23.91,23.91,0,0,0,4-6.62h5.5a24.29,24.29,0,0,1-7.19,11A21.35,21.35,0,0,1,21,281.33c-4.84,0-8.58-1.47-11.25-4.39Q4.47,271.14,7.05,259a28.54,28.54,0,0,1,8.07-15.09A22.07,22.07,0,0,1,31,237.51q7.9,0,11.39,4.17A11.93,11.93,0,0,1,45.23,251.14Z" transform="translate(-6.2 -4)"/><path d="M50.25,238.65h5.64L48.1,275.29H62.17l-1.05,5H41.42Z" transform="translate(-6.2 -4)"/><path d="M101.25,244.59q3,5.53,1.13,14.14a30.79,30.79,0,0,1-8,15.49A23.44,23.44,0,0,1,77,281.47q-9.6,0-13.74-6.35-3.6-6.11-1.61-15.46a30.29,30.29,0,0,1,7.25-14.44,22.75,22.75,0,0,1,17.56-7.71Q97.45,237.51,101.25,244.59Zm-4.68,14.22q1.56-7.34-1.31-11.81t-9.53-4.47A16.85,16.85,0,0,0,74.24,247q-5,4.42-6.86,13.07-1.48,6.92,1,11.65t10.33,4.75a14.72,14.72,0,0,0,11.91-5.34A27.78,27.78,0,0,0,96.57,258.81Z" transform="translate(-6.2 -4)"/><path d="M115.37,238.65l-5.46,25.71a14.05,14.05,0,0,0,.08,7.54q1.56,4.53,7.53,4.53,7.17,0,10.79-4.9a18.56,18.56,0,0,0,2.92-7.17l5.47-25.71h5.72l-5,23.36q-1.6,7.68-4.56,11.81-5.4,7.53-15.94,7.53t-12.69-7.53q-1.18-4.14.43-11.81l5-23.36Z" transform="translate(-6.2 -4)"/><path d="M146.51,238.65h16.85q8.58,0,12,6.09,3.06,5.49,1.21,14.07a32.86,32.86,0,0,1-5,12q-6.36,9.46-17.07,9.46h-16.8Zm7.9,36.79a16.55,16.55,0,0,0,4.81-.6,13.88,13.88,0,0,0,6.29-4.24,22.08,22.08,0,0,0,3.77-6.45,28.17,28.17,0,0,0,1.36-4.36q1.63-7.73-.53-12t-9-4.27h-10l-6.76,31.92Z" transform="translate(-6.2 -4)"/></g></svg>