<svg id="Layer_1" data-name="Layer 1" xmlns="http://www.w3.org/2000/svg" viewBox="0 0 1112.53 337.39"><defs><style>.cls-1,.cls-2,.cls-3{stroke:#000;}.cls-1,.cls-2,.cls-3,.cls-4{stroke-miterlimit:10;}.cls-1,.cls-2{stroke-width:4px;}.cls-2,.cls-4{fill:#fff;}.cls-3{stroke-width:5px;}.cls-4{stroke:#fff;}</style></defs><path class="cls-1" d="M553.34,154.74,106.23,196.12l16.3,27.77,611.12,50.63,213.78-11.37c45.17-5.42,80-18.35,101-41.32l13.36-33.19-3-36.88c-27.77-13.49-78.32-17.27-133-19.28-16.3-18.09-40.19-30.94-70.43-39.42L833,76.82c-5.34-6.18-13.69-7.92-25.65-6.94L691.5,89.33l-49.64,31.12C610,126.16,579.89,136.22,553.34,154.74Z" transform="translate(-0.87 -1)"/><path class="cls-1" d="M205,205l275.22-44.11L285.38,141.42c-29.58-3.11-54.17-15.67-76.83-31.88L107.18,10.43C99,2.57,90,2.3,80.53,3.57" transform="translate(-0.87 -1)"/><polyline class="cls-1" points="76.51 0.82 78.3 22.75 60.36 24.21 174.81 185.46"/><path class="cls-1" d="M209,189C208.67,189,80.87,3.54,80.53,3.56A411.55,411.55,0,0,0,4.36,16.79c-2.18,1.88-1.9,3.52.4,5a34.26,34.26,0,0,1,13.61,6.92l87.86,167.43" transform="translate(-0.87 -1)"/><line class="cls-1" x1="714.36" y1="96.43" x2="698.39" y2="109.77"/><polyline class="cls-1" points="705.18 119.25 704.37 109.28 650.88 113.64"/><polyline class="cls-1" points="642.98 119.29 643.39 124.28 705.18 119.25"/><line class="cls-1" x1="705.18" y1="119.25" x2="813.91" y2="111.41"/><path class="cls-1" d="M855.34,93.06c-2.61,9.13-9.1,14.94-21.29,15.86-.8.06-1.64.1-2.49.12" transform="translate(-0.87 -1)"/><path class="cls-2" d="M924.64,131.25c-28.35,16.53-53,26.93-72.84,29.32L834.94,110l18.85-16.12C900.83,102.75,908,117,924,132" transform="translate(-0.87 -1)"/><path class="cls-1" d="M834.11,78.73c-21.57,11-65.39,16.17-118.07,19L693.3,99.21l-.81-10" transform="translate(-0.87 -1)"/><path class="cls-1" d="M846.38,254.32l-32.5-152.87,14-1.14L862.08,250C857.92,255.42,852.44,256,846.38,254.32Z" transform="translate(-0.87 -1)"/><path class="cls-1" d="M842.82,247.58c-3,.24-94,3.63-94,3.63-8.7-.75-14.62-5.07-18.08-12.57l-9.67-106.57c.54-4.92,2.6-7.85,6.33-8.54L815,115.4" transform="translate(-0.87 -1)"/><path class="cls-2" d="M717.24,171.51c-40.5.59-83.73,1.64-99.48-1.94-5.73-2.73-6.34-6-3.8-9.73,24.85-17.74,59.47-25,98-28A189.35,189.35,0,0,1,717.24,171.51Z" transform="translate(-0.87 -1)"/><path class="cls-1" d="M637.62,121.24l1.14,10.5c-21,6.66-38.21,13.06-55.27,23.56l-32.14-.4" transform="translate(-0.87 -1)"/><path d="M754.41,277.12l-49.06,5.2c-21.27,5.76-13.83,39.64,24.89,37.11a416.33,416.33,0,0,0,61.18-.2c9.4-5.11,12.91-12.35,11.72-21.28-5.63-15.66-22.65-23.06-52.27-21.33" transform="translate(-0.87 -1)"/><path d="M754.41,275.62,741.25,277l-24.06,2.55-8.87.94a21.47,21.47,0,0,0-4.38.67c-6.11,2-10.78,6.88-11.63,13.36-.87,6.67,2.36,13.22,7.21,17.66,7,6.44,16.85,8.79,26.17,8.87,1.52,0,3-.13,4.55-.13,2.14,0,4.31.28,6.45.4q6.18.35,12.38.5,12.46.32,24.92-.12,6.13-.21,12.28-.61l3.18-.22a7.42,7.42,0,0,0,2.9-.45,26.91,26.91,0,0,0,4-2.63,20.66,20.66,0,0,0,8.28-13.74,15.6,15.6,0,0,0-.57-7.77,29.56,29.56,0,0,0-2.93-5.53,30.4,30.4,0,0,0-9.07-8.57c-9.13-5.67-20.46-7.11-31-7.3-3.41-.06-6.82,0-10.22.23-1.92.11-1.93,3.11,0,3,17.48-1,42.79,0,50.48,19.3.86,2.16.64,5,.2,7.28a16.74,16.74,0,0,1-2.94,6.7,22.09,22.09,0,0,1-6.22,5.53,4.47,4.47,0,0,1-1.95.88c-1,.1-2,.14-3,.21l-5.88.36a418.26,418.26,0,0,1-47.9-.22c-5.74-.36-11.44.16-17.14-1a33.92,33.92,0,0,1-11.71-4.62c-5.13-3.33-9.32-8.83-9.67-14.91a13.06,13.06,0,0,1,7.58-12.78,16.71,16.71,0,0,1,2-.79c.14,0,1.08-.34.62-.24l.13,0c.5-.09,1-.11,1.55-.16l7.27-.77,39.2-4.15.91-.1c1.9-.2,1.92-3.2,0-3Z" transform="translate(-0.87 -1)"/><path class="cls-2" d="M826.88,162.59l-91.24,6.92c-3,.57-4.75-.65-5.31-3.58L727.58,132c-.13-1.37,0-3.65,4.74-3.39l82.73-6.73" transform="translate(-0.87 -1)"/><path class="cls-1" d="M630.53,178.56c4.17.06,6.61,2.3,7.54,6.41l4.87,59.8c-.12,4.34-2.44,6.69-6.41,7.55l-42.19-.58c-3.1-.57-5.43-2.6-6.55-6.49l-5.45-54.74c.66-5.23,3.17-8,7.32-8.62Z" transform="translate(-0.87 -1)"/><path d="M912.88,302.75c-.77,10.28,2,18.09,11.74,20.94,23.63,2,49.33,1.29,77.28-2.31,5.63-2.09,8.71-6.3,10.84-11.3.7-6.33-.85-11.16-4.82-14.36-8.5-9.37-27.88-10.45-51.24-8.5l-11.11,1.17C926.36,289.73,913.52,293.7,912.88,302.75Z" transform="translate(-0.87 -1)"/><path d="M911.38,302.75c-.51,7.15.64,14.92,6.76,19.48a18.75,18.75,0,0,0,5.08,2.59c2.13.74,4.63.64,6.86.78,5,.33,10,.53,15.06.63,10.58.19,21.18-.12,31.74-.85q8.49-.6,16.94-1.53c1.38-.15,2.77-.31,4.15-.48a34.84,34.84,0,0,0,4.33-.54,15.27,15.27,0,0,0,5.54-3.17,19.94,19.94,0,0,0,3.94-4.51c1.09-1.67,2.35-3.69,2.52-5.69.37-4.13-.23-8.56-2.7-12a26.64,26.64,0,0,0-3.69-3.89,23.29,23.29,0,0,0-3.74-2.81,34.63,34.63,0,0,0-9.6-3.81c-8.58-2.13-17.64-2.26-26.43-1.94-6.54.23-13,.86-19.51,1.55-7.13.75-14.29,1.15-21.27,2.91-5.58,1.41-12.52,3.85-15.06,9.54a11.35,11.35,0,0,0-.92,3.73c-.15,1.92,2.85,1.91,3,0,.42-5.15,5.77-7.82,10.08-9.29,7-2.4,14.34-2.86,21.64-3.63,13.44-1.41,27-2.86,40.53-1.26,6.29.75,13.28,2.24,18.3,6.37,2.52,2.08,4.92,4.45,5.86,7.67a17.7,17.7,0,0,1,.57,6c-.1,1.79-1.18,3.48-2.17,5a17,17,0,0,1-3.6,4,15.09,15.09,0,0,1-2.37,1.51,9.47,9.47,0,0,1-3.54,1q-7.95,1-15.95,1.68c-10,.87-20.12,1.37-30.19,1.43a257.91,257.91,0,0,1-28.08-1,12.78,12.78,0,0,1-8.22-5.1,17.23,17.23,0,0,1-2.9-8.94,38.4,38.4,0,0,1,0-5.47C914.52,300.82,911.52,300.83,911.38,302.75Z" transform="translate(-0.87 -1)"/><path class="cls-3" d="M988.88,322.49C983.2,339,963.26,340.62,955,325.24" transform="translate(-0.87 -1)"/><path class="cls-1" d="M784.09,321.08c-8,19.21-40,19.81-46.17-.25" transform="translate(-0.87 -1)"/><path class="cls-1" d="M1058.77,151.76c17.88,3.08,39.33,8.86,51.53,16.88,1.41.58,1.46,1.24.17,2-10,7.52-30,13.34-48.79,17Z" transform="translate(-0.87 -1)"/><path class="cls-1" d="M115.09,206.44c43.6-7,85.37-12.26,123.27-14,42.85.53,42.67,6.56,0,12C195.86,207.64,160.52,207.48,115.09,206.44Z" transform="translate(-0.87 -1)"/><path class="cls-1" d="M1076.11,155.4c3.46-34.36,2.33-70.16-2.69-107.17q-5.36-16.62-6,.49c-2.22,36.14-1.84,71.25,1.76,105.07" transform="translate(-0.87 -1)"/><path class="cls-1" d="M1078.36,183.83c4.25,32.42,5.05,70.08,4,110.49q-3.18,10.29-7,.56c-4.37-37.47-6.22-73.94-4.88-109.12" transform="translate(-0.87 -1)"/><line class="cls-1" x1="934.84" y1="131.87" x2="945.56" y2="262.24"/><polyline class="cls-1" points="971.51 285.21 962.51 260.86 945.57 262.24 959.53 285.92"/><path class="cls-1" d="M736.05,279.34l-9.44-17.29c7.56-4.14,15.94-4.46,24.92-2l5.85,16.36" transform="translate(-0.87 -1)"/><path class="cls-4" d="M640,123c-9-4-80.52,23-80,32C568.48,158,644.59,125,640,123Z" transform="translate(-0.87 -1)"/></svg>