<svg id="Layer_1" data-name="Layer 1" xmlns="http://www.w3.org/2000/svg" xmlns:xlink="http://www.w3.org/1999/xlink" viewBox="0 0 83 145" width="42" height="73"><defs><style>.cls-1{fill:#808285;stroke:#231f20;}.cls-1,.cls-10,.cls-11,.cls-12,.cls-13,.cls-2,.cls-3,.cls-4,.cls-5,.cls-6,.cls-7,.cls-8,.cls-9{stroke-miterlimit:10;stroke-width:2px;}.cls-2{fill:url(#radial-gradient);stroke:url(#linear-gradient);}.cls-3{fill:url(#radial-gradient-2);stroke:url(#linear-gradient-2);}.cls-4{fill:url(#radial-gradient-3);stroke:url(#linear-gradient-3);}.cls-5{fill:url(#radial-gradient-4);stroke:url(#linear-gradient-4);}.cls-6{fill:url(#radial-gradient-5);stroke:url(#linear-gradient-5);}.cls-7{fill:url(#radial-gradient-6);stroke:url(#linear-gradient-6);}.cls-8{fill:url(#radial-gradient-7);stroke:url(#linear-gradient-7);}.cls-9{fill:url(#radial-gradient-8);stroke:url(#linear-gradient-8);}.cls-10{fill:url(#radial-gradient-9);stroke:url(#linear-gradient-9);}.cls-11{fill:url(#radial-gradient-10);stroke:url(#linear-gradient-10);}.cls-12{fill:url(#radial-gradient-11);stroke:url(#linear-gradient-11);}.cls-13{fill:url(#radial-gradient-12);stroke:url(#linear-gradient-12);}</style><radialGradient id="radial-gradient" cx="41.5" cy="19" r="9" gradientUnits="userSpaceOnUse"><stop offset="0" stop-color="#808285"/><stop offset="1" stop-color="#a7a9ac"/></radialGradient><linearGradient id="linear-gradient" x1="32.97" y1="10.47" x2="50.03" y2="27.53" gradientUnits="userSpaceOnUse"><stop offset="0.42" stop-color="#d1d3d4"/><stop offset="0.56" stop-color="#231f20"/></linearGradient><radialGradient id="radial-gradient-2" cx="19" cy="19" r="9" xlink:href="#radial-gradient"/><linearGradient id="linear-gradient-2" x1="10.47" y1="10.47" x2="27.53" y2="27.53" xlink:href="#linear-gradient"/><radialGradient id="radial-gradient-3" cx="64" cy="19" r="9" xlink:href="#radial-gradient"/><linearGradient id="linear-gradient-3" x1="55.47" y1="10.47" x2="72.53" y2="27.53" xlink:href="#linear-gradient"/><radialGradient id="radial-gradient-4" cx="41.5" cy="43" r="9" xlink:href="#radial-gradient"/><linearGradient id="linear-gradient-4" x1="32.97" y1="34.47" x2="50.03" y2="51.53" xlink:href="#linear-gradient"/><radialGradient id="radial-gradient-5" cx="19" cy="43" r="9" xlink:href="#radial-gradient"/><linearGradient id="linear-gradient-5" x1="10.47" y1="34.47" x2="27.53" y2="51.53" xlink:href="#linear-gradient"/><radialGradient id="radial-gradient-6" cx="64" cy="43" r="9" xlink:href="#radial-gradient"/><linearGradient id="linear-gradient-6" x1="55.47" y1="34.47" x2="72.53" y2="51.53" xlink:href="#linear-gradient"/><radialGradient id="radial-gradient-7" cx="41.5" cy="67" r="9" xlink:href="#radial-gradient"/><linearGradient id="linear-gradient-7" x1="32.97" y1="58.47" x2="50.03" y2="75.53" xlink:href="#linear-gradient"/><radialGradient id="radial-gradient-8" cx="19" cy="67" r="9" xlink:href="#radial-gradient"/><linearGradient id="linear-gradient-8" x1="10.47" y1="58.47" x2="27.53" y2="75.53" xlink:href="#linear-gradient"/><radialGradient id="radial-gradient-9" cx="64" cy="67" r="9" xlink:href="#radial-gradient"/><linearGradient id="linear-gradient-9" x1="55.47" y1="58.47" x2="72.53" y2="75.53" xlink:href="#linear-gradient"/><radialGradient id="radial-gradient-10" cx="41.5" cy="91" r="9" xlink:href="#radial-gradient"/><linearGradient id="linear-gradient-10" x1="32.97" y1="82.47" x2="50.03" y2="99.53" xlink:href="#linear-gradient"/><radialGradient id="radial-gradient-11" cx="19" cy="91" r="9" xlink:href="#radial-gradient"/><linearGradient id="linear-gradient-11" x1="10.47" y1="82.47" x2="27.53" y2="99.53" xlink:href="#linear-gradient"/><radialGradient id="radial-gradient-12" cx="64" cy="91" r="9" xlink:href="#radial-gradient"/><linearGradient id="linear-gradient-12" x1="55.47" y1="82.47" x2="72.53" y2="99.53" xlink:href="#linear-gradient"/></defs><rect class="cls-1" x="1" y="1" width="81" height="108"/><rect class="cls-2" x="32.5" y="10" width="18" height="18" rx="4"/><rect class="cls-3" x="10" y="10" width="18" height="18" rx="4"/><path d="M18.28,15.09h0l-1.36.73L16.7,15l1.7-.91h.9v7.8h-1Z" transform="translate(1 1)"/><rect class="cls-4" x="55" y="10" width="18" height="18" rx="4"/><rect class="cls-5" x="32.5" y="34" width="18" height="18" rx="4"/><rect class="cls-6" x="10" y="34" width="18" height="18" rx="4"/><rect class="cls-7" x="55" y="34" width="18" height="18" rx="4"/><rect class="cls-8" x="32.5" y="58" width="18" height="18" rx="4"/><rect class="cls-9" x="10" y="58" width="18" height="18" rx="4"/><rect class="cls-10" x="55" y="58" width="18" height="18" rx="4"/><rect class="cls-11" x="32.5" y="82" width="18" height="18" rx="4"/><rect class="cls-12" x="10" y="82" width="18" height="18" rx="4"/><rect class="cls-13" x="55" y="82" width="18" height="18" rx="4"/><path d="M38,22v-.64l.83-.81c2-1.89,2.89-2.9,2.9-4.07a1.39,1.39,0,0,0-1.55-1.53,2.66,2.66,0,0,0-1.65.66l-.34-.74A3.41,3.41,0,0,1,40.41,14,2.19,2.19,0,0,1,42.8,16.3c0,1.44-1,2.61-2.69,4.19l-.62.57v0H43V22Z" transform="translate(1 1)"/><path d="M60.85,20.69a3.57,3.57,0,0,0,1.73.49c1.36,0,1.77-.87,1.76-1.51,0-1.09-1-1.56-2-1.56h-.59v-.79h.59c.77,0,1.74-.4,1.74-1.32,0-.63-.4-1.18-1.37-1.18a2.89,2.89,0,0,0-1.56.52l-.27-.77a3.65,3.65,0,0,1,2-.6c1.54,0,2.23.91,2.23,1.86a1.93,1.93,0,0,1-1.43,1.83v0a2,2,0,0,1,1.73,2c0,1.25-1,2.34-2.84,2.34a4,4,0,0,1-2-.53Z" transform="translate(1 1)"/><path d="M18.77,45.9V43.77H15.15v-.69l3.47-5h1.14V43h1.09v.82H19.76V45.9Zm0-2.95v-2.6q0-.62,0-1.23h0c-.24.46-.43.79-.65,1.15l-1.91,2.65v0Z" transform="translate(1 1)"/><path d="M42.77,38.92h-3l-.3,2a3.52,3.52,0,0,1,.64,0,3.28,3.28,0,0,1,1.68.42,2.22,2.22,0,0,1,1.11,2A2.7,2.7,0,0,1,40,46a3.8,3.8,0,0,1-1.94-.48l.26-.8a3.51,3.51,0,0,0,1.67.43,1.73,1.73,0,0,0,1.85-1.69c0-1-.69-1.73-2.25-1.73a7.42,7.42,0,0,0-1.08.09L39,38h3.73Z" transform="translate(1 1)"/><path d="M64.91,38.84a3.8,3.8,0,0,0-.79,0,3.14,3.14,0,0,0-2.71,2.77h0a2.37,2.37,0,0,1,4.23,1.62A2.6,2.6,0,0,1,63.08,46c-1.66,0-2.75-1.29-2.75-3.32a4.93,4.93,0,0,1,1.31-3.51A4.25,4.25,0,0,1,64.14,38a4.84,4.84,0,0,1,.77-.06Zm-.3,4.5A1.59,1.59,0,0,0,63,41.55a1.74,1.74,0,0,0-1.51,1,.93.93,0,0,0-.12.47c0,1.28.61,2.23,1.71,2.23C64,45.21,64.61,44.45,64.61,43.34Z" transform="translate(1 1)"/><path d="M20.46,62.1v.7l-3.4,7.1H16L19.36,63v0H15.54V62.1Z" transform="translate(1 1)"/><path d="M37.87,67.92a2.23,2.23,0,0,1,1.54-2.09v0A1.94,1.94,0,0,1,38.17,64,2.18,2.18,0,0,1,40.58,62a2,2,0,0,1,2.26,1.92,2,2,0,0,1-1.28,1.82v0a2.16,2.16,0,0,1,1.57,2A2.4,2.4,0,0,1,40.48,70C38.85,70,37.87,69.06,37.87,67.92Zm4.2,0c0-1-.66-1.4-1.72-1.7a1.68,1.68,0,0,0-1.4,1.6,1.44,1.44,0,0,0,1.56,1.49A1.42,1.42,0,0,0,42.07,67.87ZM39.16,64c0,.78.59,1.2,1.49,1.44A1.54,1.54,0,0,0,41.84,64a1.21,1.21,0,0,0-1.32-1.27A1.24,1.24,0,0,0,39.16,64Z" transform="translate(1 1)"/><path d="M61,69.16a4.43,4.43,0,0,0,.85,0,2.9,2.9,0,0,0,1.63-.75,3.38,3.38,0,0,0,1-2.08h0a2.29,2.29,0,0,1-1.84.84,2.26,2.26,0,0,1-2.3-2.39A2.68,2.68,0,0,1,63,62c1.6,0,2.58,1.3,2.58,3.29a5,5,0,0,1-1.34,3.66A3.85,3.85,0,0,1,62,70,5,5,0,0,1,61,70Zm.38-4.49a1.51,1.51,0,0,0,1.5,1.66,1.75,1.75,0,0,0,1.54-.82.67.67,0,0,0,.09-.38c0-1.33-.49-2.35-1.59-2.35C62.06,62.78,61.42,63.57,61.42,64.67Z" transform="translate(1 1)"/><path d="M43.14,89.92c0,2.65-1,4.11-2.71,4.11-1.52,0-2.55-1.43-2.57-4s1.12-4,2.71-4S43.14,87.43,43.14,89.92ZM38.91,90c0,2,.62,3.17,1.58,3.17S42.09,92,42.09,90s-.49-3.17-1.58-3.17C39.58,86.79,38.91,87.91,38.91,90Z" transform="translate(1 1)"/><path d="M19.46,88.31l-1.14,1.5v0l1.81-.24v.82l-1.81-.22v0l1.15,1.44-.76.43L18,90.41h0l-.78,1.69-.68-.43,1.14-1.47v0l-1.78.23v-.82l1.76.23v0l-1.12-1.47.73-.42L18,89.58h0l.73-1.68Z" transform="translate(1 1)"/><path d="M61.13,93.9l.31-2.35h-1v-.71h1.09l.23-1.74h-1v-.71h1.13l.32-2.29h.69l-.3,2.29h1.25l.31-2.29h.71l-.3,2.29h1v.71H64.45l-.21,1.74h1v.71H64.13l-.31,2.35H63.1l.31-2.35H62.16l-.31,2.35Zm2.39-3.06.22-1.74H62.5l-.23,1.74Z" transform="translate(1 1)"/><rect x="32.16" y="109" width="18.69" height="36"/></svg>